<svg width="16" height="17" viewBox="0 0 16 17" fill="none" xmlns="http://www.w3.org/2000/svg">
<g clip-path="url(#clip0_2123_4119)">
<g clip-path="url(#clip1_2123_4119)">
<path fill-rule="evenodd" clip-rule="evenodd" d="M10.6667 3C10.8435 3 11.013 3.07024 11.1381 3.19526C11.2631 3.32029 11.3333 3.48986 11.3333 3.66667V4.33333H12.6667C13.0203 4.33333 13.3594 4.47381 13.6095 4.72386C13.8595 4.97391 14 5.31304 14 5.66667V13.6667C14 14.0203 13.8595 14.3594 13.6095 14.6095C13.3594 14.8595 13.0203 15 12.6667 15H3.33333C2.97971 15 2.64057 14.8595 2.39052 14.6095C2.14048 14.3594 2 14.0203 2 13.6667V5.66667C2 5.31304 2.14048 4.97391 2.39052 4.72386C2.64057 4.47381 2.97971 4.33333 3.33333 4.33333H4.66667V3.66667C4.66667 3.48986 4.7369 3.32029 4.86193 3.19526C4.98695 3.07024 5.15652 3 5.33333 3C5.51014 3 5.67971 3.07024 5.80474 3.19526C5.92976 3.32029 6 3.48986 6 3.66667V4.33333H10V3.66667C10 3.48986 10.0702 3.32029 10.1953 3.19526C10.3203 3.07024 10.4899 3 10.6667 3ZM5.34 11.6667H5.33333C5.16341 11.6669 4.99998 11.7319 4.87642 11.8486C4.75286 11.9652 4.67851 12.1246 4.66855 12.2943C4.65859 12.4639 4.71378 12.6309 4.82284 12.7612C4.9319 12.8915 5.0866 12.9753 5.25533 12.9953L5.34 13C5.51681 13 5.68638 12.9298 5.8114 12.8047C5.93643 12.6797 6.00667 12.5101 6.00667 12.3333C6.00667 12.1565 5.93643 11.987 5.8114 11.8619C5.68638 11.7369 5.51681 11.6667 5.34 11.6667ZM8.00667 11.6667H8C7.83008 11.6669 7.66665 11.7319 7.54309 11.8486C7.41953 11.9652 7.34518 12.1246 7.33522 12.2943C7.32526 12.4639 7.38045 12.6309 7.48951 12.7612C7.59857 12.8915 7.75327 12.9753 7.922 12.9953L8.00667 13C8.18348 13 8.35305 12.9298 8.47807 12.8047C8.6031 12.6797 8.67333 12.5101 8.67333 12.3333C8.67333 12.1565 8.6031 11.987 8.47807 11.8619C8.35305 11.7369 8.18348 11.6667 8.00667 11.6667ZM10.6733 11.6667H10.6667C10.4967 11.6669 10.3333 11.7319 10.2098 11.8486C10.0862 11.9652 10.0118 12.1246 10.0019 12.2943C9.99193 12.4639 10.0471 12.6309 10.1562 12.7612C10.2652 12.8915 10.4199 12.9753 10.5887 12.9953L10.6733 13C10.8501 13 11.0197 12.9298 11.1447 12.8047C11.2698 12.6797 11.34 12.5101 11.34 12.3333C11.34 12.1565 11.2698 11.987 11.1447 11.8619C11.0197 11.7369 10.8501 11.6667 10.6733 11.6667ZM5.34 9H5.33333C5.16341 9.00019 4.99998 9.06525 4.87642 9.1819C4.75286 9.29854 4.67851 9.45797 4.66855 9.6276C4.65859 9.79722 4.71378 9.96425 4.82284 10.0946C4.9319 10.2249 5.0866 10.3086 5.25533 10.3287L5.34 10.3333C5.51681 10.3333 5.68638 10.2631 5.8114 10.1381C5.93643 10.013 6.00667 9.84348 6.00667 9.66667C6.00667 9.48986 5.93643 9.32029 5.8114 9.19526C5.68638 9.07024 5.51681 9 5.34 9ZM8.00667 9H8C7.83008 9.00019 7.66665 9.06525 7.54309 9.1819C7.41953 9.29854 7.34518 9.45797 7.33522 9.6276C7.32526 9.79722 7.38045 9.96425 7.48951 10.0946C7.59857 10.2249 7.75327 10.3086 7.922 10.3287L8.00667 10.3333C8.18348 10.3333 8.35305 10.2631 8.47807 10.1381C8.6031 10.013 8.67333 9.84348 8.67333 9.66667C8.67333 9.48986 8.6031 9.32029 8.47807 9.19526C8.35305 9.07024 8.18348 9 8.00667 9ZM10.6733 9H10.6667C10.4967 9.00019 10.3333 9.06525 10.2098 9.1819C10.0862 9.29854 10.0118 9.45797 10.0019 9.6276C9.99193 9.79722 10.0471 9.96425 10.1562 10.0946C10.2652 10.2249 10.4199 10.3086 10.5887 10.3287L10.6733 10.3333C10.8501 10.3333 11.0197 10.2631 11.1447 10.1381C11.2698 10.013 11.34 9.84348 11.34 9.66667C11.34 9.48986 11.2698 9.32029 11.1447 9.19526C11.0197 9.07024 10.8501 9 10.6733 9ZM12.6667 5.66667H3.33333V7H12.6667V5.66667Z" fill="#3976DE"/>
</g>
</g>
<defs>
<clipPath id="clip0_2123_4119">
<rect width="16" height="16" fill="white" transform="translate(0 0.5)"/>
</clipPath>
<clipPath id="clip1_2123_4119">
<rect width="16" height="16" fill="white" transform="translate(0 1)"/>
</clipPath>
</defs>
</svg>
