<svg width="16" height="17" viewBox="0 0 16 17" fill="none" xmlns="http://www.w3.org/2000/svg">
<g clip-path="url(#clip0_2123_4123)">
<path d="M4.48008 11.5933C4.64982 11.5437 4.83227 11.5637 4.9873 11.6487C5.14233 11.7337 5.25724 11.8768 5.30675 12.0466C5.35626 12.2163 5.33631 12.3988 5.25129 12.5538C5.16627 12.7088 5.02315 12.8237 4.85342 12.8733C4.52008 12.9706 4.28008 13.0733 4.12608 13.1666C4.28475 13.2619 4.53541 13.3686 4.88341 13.4679C5.65341 13.6879 6.75541 13.8333 8.00008 13.8333C9.24475 13.8333 10.3467 13.6879 11.1167 13.4679C11.4654 13.3686 11.7154 13.2619 11.8741 13.1666C11.7207 13.0733 11.4807 12.9706 11.1474 12.8733C10.9803 12.8216 10.8403 12.7063 10.7574 12.5523C10.6745 12.3983 10.6555 12.2179 10.7044 12.05C10.7533 11.8821 10.8662 11.7401 11.0187 11.6547C11.1713 11.5692 11.3514 11.5472 11.5201 11.5933C11.9654 11.7233 12.3734 11.8899 12.6867 12.1039C12.9767 12.3033 13.3334 12.6506 13.3334 13.1666C13.3334 13.6886 12.9681 14.0386 12.6734 14.2379C12.3547 14.4526 11.9381 14.6199 11.4827 14.7499C10.5641 15.0133 9.33342 15.1666 8.00008 15.1666C6.66675 15.1666 5.43608 15.0133 4.51741 14.7499C4.06208 14.6199 3.64541 14.4526 3.32675 14.2379C3.03208 14.0379 2.66675 13.6886 2.66675 13.1666C2.66675 12.6506 3.02341 12.3033 3.31341 12.1039C3.62675 11.8899 4.03475 11.7233 4.48008 11.5933ZM8.00008 1.83325C9.32616 1.83325 10.5979 2.36004 11.5356 3.29772C12.4733 4.2354 13.0001 5.50717 13.0001 6.83325C13.0001 8.54525 12.0667 9.93725 11.1001 10.9266C10.7158 11.3159 10.3029 11.6758 9.86475 12.0033C9.46875 12.3006 8.56342 12.8579 8.56342 12.8579C8.39171 12.9555 8.19759 13.0068 8.00008 13.0068C7.80257 13.0068 7.60846 12.9555 7.43675 12.8579C6.98726 12.5977 6.55279 12.3124 6.13541 12.0033C5.69711 11.676 5.28416 11.3161 4.90008 10.9266C3.93341 9.93725 3.00008 8.54525 3.00008 6.83325C3.00008 5.50717 3.52687 4.2354 4.46455 3.29772C5.40223 2.36004 6.674 1.83325 8.00008 1.83325ZM8.00008 5.49992C7.64646 5.49992 7.30732 5.64039 7.05727 5.89044C6.80722 6.14049 6.66675 6.47963 6.66675 6.83325C6.66675 7.18687 6.80722 7.52601 7.05727 7.77606C7.30732 8.02611 7.64646 8.16658 8.00008 8.16658C8.3537 8.16658 8.69284 8.02611 8.94289 7.77606C9.19294 7.52601 9.33342 7.18687 9.33342 6.83325C9.33342 6.47963 9.19294 6.14049 8.94289 5.89044C8.69284 5.64039 8.3537 5.49992 8.00008 5.49992Z" fill="#3976DE"/>
</g>
<defs>
<clipPath id="clip0_2123_4123">
<rect width="16" height="16" fill="white" transform="translate(0 0.5)"/>
</clipPath>
</defs>
</svg>
