<svg width="20" height="20" viewBox="0 0 20 20" fill="none" xmlns="http://www.w3.org/2000/svg">
<g clip-path="url(#clip0_2123_4128)">
<path fill-rule="evenodd" clip-rule="evenodd" d="M9.55238 2.40908C9.58874 2.56918 9.5932 2.73488 9.5655 2.89671C9.53781 3.05854 9.47851 3.21332 9.39099 3.35223C9.30346 3.49113 9.18944 3.61144 9.05541 3.70627C8.92139 3.8011 8.77 3.8686 8.60988 3.90491C8.45572 3.93991 8.30405 3.97991 8.15488 4.02658C7.99801 4.07506 7.83312 4.09216 7.66963 4.07692C7.50615 4.06168 7.34727 4.01438 7.20206 3.93773C7.05685 3.86108 6.92816 3.75659 6.82334 3.63021C6.71852 3.50383 6.63961 3.35804 6.59113 3.20116C6.54265 3.04429 6.52555 2.8794 6.54079 2.71591C6.55604 2.55243 6.60333 2.39354 6.67998 2.24834C6.75662 2.10313 6.86112 1.97444 6.9875 1.86962C7.11388 1.76479 7.25967 1.68589 7.41655 1.63741C7.62655 1.57241 7.83988 1.51574 8.05572 1.46658C8.21582 1.43022 8.38152 1.42576 8.54335 1.45346C8.70517 1.48115 8.85996 1.54045 8.99887 1.62797C9.13777 1.71549 9.25808 1.82952 9.35291 1.96355C9.44774 2.09757 9.51524 2.24896 9.55155 2.40908M10.4465 2.40908C10.5201 2.08587 10.719 1.80509 10.9995 1.6285C11.28 1.45191 11.6192 1.39396 11.9424 1.46741C15.8399 2.34991 18.7499 5.83324 18.7499 9.99991C18.7499 14.8324 14.8324 18.7499 9.99988 18.7499C5.83405 18.7499 2.35072 15.8399 1.46655 11.9432C1.39317 11.6199 1.45125 11.2807 1.628 11.0001C1.80476 10.7196 2.08571 10.5208 2.40905 10.4474C2.73239 10.374 3.07164 10.4321 3.35216 10.6089C3.63269 10.7856 3.83151 11.0666 3.90488 11.3899C4.15362 12.4787 4.68955 13.4809 5.45692 14.2923C6.2243 15.1038 7.19508 15.6948 8.26828 16.0038C9.34149 16.3129 10.4779 16.3288 11.5593 16.0497C12.6407 15.7707 13.6276 15.2071 14.4173 14.4173C15.207 13.6276 15.7707 12.6407 16.0497 11.5593C16.3287 10.4779 16.3129 9.34152 16.0038 8.26831C15.6947 7.19511 15.1038 6.22433 14.2923 5.45695C13.4809 4.68958 12.4787 4.15365 11.3899 3.90491C11.0667 3.83139 10.7859 3.6325 10.6093 3.35199C10.4327 3.07147 10.3748 2.73231 10.4482 2.40908M5.81655 3.65074C6.04175 3.89381 6.16124 4.21634 6.14873 4.54746C6.13623 4.87858 5.99277 5.19119 5.74988 5.41658C5.63465 5.52349 5.52346 5.63468 5.41655 5.74991C5.30493 5.87029 5.17068 5.9675 5.02149 6.036C4.8723 6.1045 4.71107 6.14294 4.54702 6.14913C4.38297 6.15532 4.21931 6.12914 4.06538 6.07208C3.91145 6.01502 3.77026 5.9282 3.64988 5.81658C3.5295 5.70495 3.43229 5.57071 3.36379 5.42152C3.29529 5.27233 3.25685 5.1111 3.25066 4.94705C3.24447 4.783 3.27065 4.61934 3.32771 4.46541C3.38477 4.31147 3.47159 4.17029 3.58322 4.04991C3.73322 3.88824 3.88905 3.73324 4.04988 3.58324C4.17025 3.47161 4.31144 3.38477 4.46537 3.32771C4.6193 3.27064 4.78297 3.24445 4.94702 3.25064C5.11108 3.25683 5.27231 3.29528 5.4215 3.36379C5.5707 3.43229 5.70493 3.53035 5.81655 3.65074ZM9.99988 4.58324C10.3314 4.58324 10.6493 4.71494 10.8838 4.94936C11.1182 5.18378 11.2499 5.50172 11.2499 5.83324V9.48241L13.3832 11.6157C13.5027 11.731 13.5979 11.8689 13.6635 12.0214C13.7291 12.1738 13.7637 12.3378 13.7652 12.5038C13.7667 12.6698 13.7352 12.8344 13.6724 12.988C13.6096 13.1417 13.5169 13.2813 13.3995 13.3987C13.2822 13.5161 13.1427 13.609 12.9891 13.672C12.8355 13.7349 12.6709 13.7666 12.505 13.7652C12.339 13.7639 12.175 13.7294 12.0224 13.664C11.8699 13.5986 11.7319 13.5034 11.6165 13.3841L9.11655 10.8841C9.00034 10.768 8.90815 10.6302 8.84523 10.4785C8.78232 10.3268 8.74992 10.1641 8.74988 9.99991V5.83324C8.74988 5.50172 8.88158 5.18378 9.116 4.94936C9.35042 4.71494 9.66836 4.58324 9.99988 4.58324ZM3.19988 6.59158C3.35685 6.63989 3.50275 6.71867 3.62926 6.8234C3.75577 6.92813 3.8604 7.05676 3.93717 7.20194C4.01394 7.34713 4.06135 7.50602 4.07668 7.66953C4.09202 7.83305 4.07498 7.99798 4.02655 8.15491C3.98072 8.30408 3.93988 8.45574 3.90488 8.60991C3.83151 8.93325 3.63269 9.2142 3.35216 9.39096C3.07164 9.56771 2.73239 9.62579 2.40905 9.55241C2.08571 9.47903 1.80476 9.28022 1.628 8.99969C1.45125 8.71917 1.39317 8.37992 1.46655 8.05658C1.51572 7.83991 1.57238 7.62741 1.63738 7.41741C1.68578 7.26052 1.76462 7.1147 1.86939 6.98829C1.97415 6.86187 2.1028 6.75733 2.24797 6.68064C2.39315 6.60395 2.55201 6.55662 2.71549 6.54133C2.87896 6.52605 3.04384 6.54312 3.20072 6.59158" fill="#3976DE"/>
</g>
<defs>
<clipPath id="clip0_2123_4128">
<rect width="20" height="20" fill="white"/>
</clipPath>
</defs>
</svg>
