<svg width="16" height="17" viewBox="0 0 16 17" fill="none" xmlns="http://www.w3.org/2000/svg">
<path d="M6.99996 13.8337C6.99996 14.0989 7.10532 14.3532 7.29285 14.5408C7.48039 14.7283 7.73474 14.8337 7.99996 14.8337C8.26518 14.8337 8.51953 14.7283 8.70707 14.5408C8.8946 14.3532 8.99996 14.0989 8.99996 13.8337V9.50033H13.3333C13.5985 9.50033 13.8529 9.39497 14.0404 9.20743C14.2279 9.0199 14.3333 8.76554 14.3333 8.50033C14.3333 8.23511 14.2279 7.98076 14.0404 7.79322C13.8529 7.60568 13.5985 7.50033 13.3333 7.50033H8.99996V3.16699C8.99996 2.90178 8.8946 2.64742 8.70707 2.45989C8.51953 2.27235 8.26518 2.16699 7.99996 2.16699C7.73474 2.16699 7.48039 2.27235 7.29285 2.45989C7.10532 2.64742 6.99996 2.90178 6.99996 3.16699V7.50033H2.66663C2.40141 7.50033 2.14706 7.60568 1.95952 7.79322C1.77198 7.98076 1.66663 8.23511 1.66663 8.50033C1.66663 8.76554 1.77198 9.0199 1.95952 9.20743C2.14706 9.39497 2.40141 9.50033 2.66663 9.50033H6.99996V13.8337Z" fill="white"/>
</svg>
