<svg width="24" height="25" viewBox="0 0 24 25" fill="none" xmlns="http://www.w3.org/2000/svg">
<rect width="24" height="25" rx="12" fill="#3976DE"/>
<g clip-path="url(#clip0_2040_2975)">
<path fill-rule="evenodd" clip-rule="evenodd" d="M19.1595 7.33318C19.3704 7.54415 19.4889 7.83024 19.4889 8.12855C19.4889 8.42686 19.3704 8.71296 19.1595 8.92393L10.7273 17.3562C10.6158 17.4676 10.4835 17.5561 10.3379 17.6164C10.1923 17.6767 10.0363 17.7077 9.87865 17.7077C9.72104 17.7077 9.56497 17.6767 9.41936 17.6164C9.27375 17.5561 9.14145 17.4676 9.03002 17.3562L4.84052 13.1674C4.73307 13.0636 4.64737 12.9395 4.58841 12.8023C4.52945 12.665 4.49841 12.5174 4.49711 12.368C4.49581 12.2186 4.52428 12.0705 4.58085 11.9322C4.63741 11.794 4.72095 11.6684 4.82658 11.5627C4.9322 11.4571 5.05781 11.3736 5.19607 11.317C5.33433 11.2604 5.48247 11.232 5.63185 11.2333C5.78122 11.2346 5.92885 11.2656 6.0661 11.3246C6.20335 11.3835 6.32749 11.4692 6.43127 11.5767L9.87827 15.0237L17.568 7.33318C17.6725 7.22864 17.7965 7.1457 17.9331 7.08912C18.0696 7.03254 18.216 7.00342 18.3638 7.00342C18.5116 7.00342 18.6579 7.03254 18.7945 7.08912C18.931 7.1457 19.055 7.22864 19.1595 7.33318Z" fill="#EFEFEF"/>
</g>
<defs>
<clipPath id="clip0_2040_2975">
<rect width="18" height="18" fill="white" transform="translate(3 3.5)"/>
</clipPath>
</defs>
</svg>
