<svg width="25" height="25" viewBox="0 0 25 25" fill="none" xmlns="http://www.w3.org/2000/svg">
<g clip-path="url(#clip0_4183_2168)">
<path d="M5.99693 4.49769C5.78978 4.44303 5.57192 4.44366 5.36508 4.4995C5.15825 4.55534 4.96967 4.66446 4.81818 4.81595C4.66669 4.96744 4.55758 5.15601 4.50174 5.36284C4.44589 5.56968 4.44527 5.78754 4.49993 5.99469L5.76393 10.7847L3.08193 14.9497C2.96573 15.1297 2.89881 15.337 2.88784 15.5509C2.87687 15.7649 2.92224 15.9779 3.01941 16.1688C3.11659 16.3598 3.26217 16.5218 3.4416 16.6388C3.62104 16.7559 3.82804 16.8237 4.04193 16.8357L8.98893 17.1137L12.1209 20.9517C12.2564 21.1177 12.433 21.2452 12.6331 21.3216C12.8333 21.398 13.05 21.4206 13.2616 21.3871C13.4732 21.3536 13.6723 21.2652 13.839 21.1308C14.0058 20.9963 14.1344 20.8204 14.2119 20.6207L15.6099 17.0207L20.2179 21.6287C20.4065 21.8109 20.6591 21.9116 20.9213 21.9094C21.1835 21.9071 21.4343 21.8019 21.6197 21.6165C21.8052 21.4311 21.9103 21.1803 21.9126 20.9181C21.9149 20.6559 21.8141 20.4033 21.6319 20.2147L17.0239 15.6067L20.6239 14.2097C20.8236 14.132 20.9993 14.0034 21.1337 13.8366C21.2681 13.6697 21.3564 13.4706 21.3898 13.259C21.4232 13.0474 21.4005 12.8308 21.324 12.6307C21.2475 12.4306 21.1199 12.2541 20.9539 12.1187L17.1159 8.98669L16.8379 4.03969C16.8257 3.82594 16.7576 3.61913 16.6405 3.43987C16.5235 3.26062 16.3614 3.11518 16.1706 3.01806C15.9798 2.92093 15.7669 2.87551 15.5531 2.88633C15.3392 2.89714 15.132 2.96381 14.9519 3.07969L10.7869 5.76169L5.99693 4.49769Z" fill="#A6A6A6"/>
</g>
<defs>
<clipPath id="clip0_4183_2168">
<rect width="24" height="24" fill="white" transform="translate(0.5 0.5)"/>
</clipPath>
</defs>
</svg>
