<svg width="40" height="40" viewBox="0 0 40 40" fill="none" xmlns="http://www.w3.org/2000/svg">
<path d="M18.2 4.78049C18.3834 4.46575 18.6461 4.20461 18.962 4.02311C19.2778 3.84161 19.6357 3.74609 20 3.74609C20.3643 3.74609 20.7222 3.84161 21.038 4.02311C21.3538 4.20461 21.6166 4.46575 21.8 4.78049L26.4583 12.7772L35.505 14.7372C35.8608 14.8145 36.1902 14.9837 36.4602 15.228C36.7303 15.4723 36.9316 15.7832 37.0441 16.1295C37.1565 16.4759 37.1763 16.8457 37.1013 17.202C37.0263 17.5584 36.8592 17.8888 36.6166 18.1605L30.45 25.0622L31.3833 34.2705C31.4201 34.6331 31.3612 34.999 31.2124 35.3317C31.0635 35.6644 30.83 35.9522 30.5352 36.1664C30.2403 36.3806 29.8944 36.5138 29.5321 36.5525C29.1697 36.5912 28.8034 36.5342 28.47 36.3872L20 32.6538L11.53 36.3872C11.1965 36.5342 10.8303 36.5912 10.4679 36.5525C10.1055 36.5138 9.75961 36.3806 9.46476 36.1664C9.16991 35.9522 8.93641 35.6644 8.78759 35.3317C8.63877 34.999 8.57982 34.6331 8.61664 34.2705L9.54998 25.0622L3.38331 18.1622C3.14035 17.8905 2.9729 17.5599 2.89766 17.2034C2.82243 16.8468 2.84204 16.4767 2.95455 16.1301C3.06705 15.7835 3.26851 15.4724 3.53882 15.228C3.80912 14.9836 4.13881 14.8143 4.49498 14.7372L13.5416 12.7772L18.2 4.78049Z" fill="#3976DE"/>
</svg>
